# xmcd CD database file
#
# Track frame offsets:
#	150
#	33272
#	50167
#
# Disc length: 1110 seconds
#
# Revision: 0
# Processed by: cddbd v1.5.1PL0 Copyright (c) Steve Scherf et al.
# Submitted via: CDex 1.51
#
DISCID=21045403
DTITLE=SET - アニテクノ　サーフMIX
DYEAR=1900
DGENRE=Anime
TTITLE0=アニテクノ　サーフMIX
TTITLE1=アニテクノ　サーフMIX　RADIO EDIT
TTITLE2=アニテクノ　サーフMIX　カラオケ
EXTD=
EXTT0=
EXTT1=
EXTT2=
PLAYORDER=
